<!-- Gold Piece - Medieval pixel art style -->
<svg width="64" height="64" viewBox="0 0 64 64" xmlns="http://www.w3.org/2000/svg">
  <!-- Coin shadow -->
  <rect x="18" y="18" width="28" height="28" fill="#B8860B"/>
  <rect x="20" y="20" width="24" height="24" fill="#B8860B"/>
  <rect x="22" y="22" width="20" height="20" fill="#B8860B"/>
  
  <!-- Coin base -->
  <rect x="18" y="16" width="28" height="28" fill="#FFD700"/>
  <rect x="20" y="18" width="24" height="24" fill="#FFD700"/>
  <rect x="22" y="20" width="20" height="20" fill="#FFD700"/>
  
  <!-- Coin highlights -->
  <rect x="20" y="18" width="22" height="2" fill="#FFFF99"/>
  <rect x="20" y="18" width="2" height="22" fill="#FFFF99"/>
  
  <!-- Crown symbol -->
  <rect x="28" y="24" width="8" height="4" fill="#B8860B"/>
  <rect x="26" y="26" width="2" height="2" fill="#B8860B"/>
  <rect x="30" y="22" width="2" height="2" fill="#B8860B"/>
  <rect x="32" y="22" width="2" height="2" fill="#B8860B"/>
  <rect x="36" y="26" width="2" height="2" fill="#B8860B"/>
  
  <!-- Value marking -->
  <rect x="30" y="34" width="4" height="6" fill="#B8860B"/>
  <rect x="28" y="36" width="2" height="2" fill="#B8860B"/>
  <rect x="34" y="36" width="2" height="2" fill="#B8860B"/>
  <rect x="30" y="38" width="4" height="2" fill="#B8860B"/>
</svg>