<!-- Greatsword - Medieval pixel art style -->
<svg width="64" height="64" viewBox="0 0 64 64" xmlns="http://www.w3.org/2000/svg">
  <!-- Blade -->
  <rect x="30" y="4" width="4" height="36" fill="#C0C0C0"/>
  <rect x="28" y="6" width="2" height="32" fill="#E8E8E8"/>
  <rect x="34" y="6" width="2" height="32" fill="#A0A0A0"/>
  <rect x="30" y="2" width="4" height="2" fill="#C0C0C0"/>
  <rect x="32" y="0" width="2" height="2" fill="#E8E8E8"/>
  
  <!-- Blade fuller -->
  <rect x="31" y="6" width="2" height="30" fill="#B0B0B0"/>
  
  <!-- Ricasso (unsharpened blade base) -->
  <rect x="29" y="38" width="6" height="4" fill="#A0A0A0"/>
  
  <!-- Crossguard -->
  <rect x="20" y="40" width="24" height="4" fill="#696969"/>
  <rect x="20" y="40" width="24" height="2" fill="#808080"/>
  <rect x="18" y="41" width="4" height="2" fill="#808080"/>
  <rect x="42" y="41" width="4" height="2" fill="#808080"/>
  
  <!-- Handle -->
  <rect x="30" y="44" width="4" height="14" fill="#654321"/>
  <rect x="29" y="45" width="2" height="12" fill="#8B4513"/>
  <rect x="33" y="45" width="2" height="12" fill="#4A2C17"/>
  
  <!-- Handle wrap sections -->
  <rect x="28" y="47" width="8" height="1" fill="#2F1B14"/>
  <rect x="28" y="50" width="8" height="1" fill="#2F1B14"/>
  <rect x="28" y="53" width="8" height="1" fill="#2F1B14"/>
  
  <!-- Pommel -->
  <rect x="26" y="58" width="12" height="6" fill="#696969"/>
  <rect x="26" y="58" width="12" height="3" fill="#808080"/>
  <rect x="28" y="60" width="8" height="2" fill="#A0A0A0"/>
</svg>