<!-- Longsword - Medieval pixel art style -->
<svg width="64" height="64" viewBox="0 0 64 64" xmlns="http://www.w3.org/2000/svg">
  <!-- Blade -->
  <rect x="30" y="6" width="4" height="30" fill="#C0C0C0"/>
  <rect x="28" y="8" width="2" height="26" fill="#E8E8E8"/>
  <rect x="34" y="8" width="2" height="26" fill="#A0A0A0"/>
  <rect x="30" y="4" width="4" height="2" fill="#C0C0C0"/>
  <rect x="32" y="2" width="2" height="2" fill="#E8E8E8"/>
  
  <!-- Blade fuller -->
  <rect x="31" y="8" width="2" height="24" fill="#B0B0B0"/>
  
  <!-- Ricasso -->
  <rect x="29" y="34" width="6" height="3" fill="#A0A0A0"/>
  
  <!-- Crossguard -->
  <rect x="22" y="36" width="20" height="4" fill="#696969"/>
  <rect x="22" y="36" width="20" height="2" fill="#808080"/>
  <rect x="20" y="37" width="4" height="2" fill="#808080"/>
  <rect x="40" y="37" width="4" height="2" fill="#808080"/>
  
  <!-- Handle -->
  <rect x="30" y="40" width="4" height="12" fill="#654321"/>
  <rect x="29" y="41" width="2" height="10" fill="#8B4513"/>
  <rect x="33" y="41" width="2" height="10" fill="#4A2C17"/>
  
  <!-- Handle wrap -->
  <rect x="28" y="43" width="8" height="1" fill="#2F1B14"/>
  <rect x="28" y="46" width="8" height="1" fill="#2F1B14"/>
  <rect x="28" y="49" width="8" height="1" fill="#2F1B14"/>
  
  <!-- Pommel -->
  <rect x="28" y="52" width="8" height="5" fill="#696969"/>
  <rect x="28" y="52" width="8" height="2" fill="#808080"/>
  <rect x="30" y="54" width="4" height="2" fill="#A0A0A0"/>
</svg>