<!-- Battleaxe - Medieval pixel art style -->
<svg width="64" height="64" viewBox="0 0 64 64" xmlns="http://www.w3.org/2000/svg">
  <!-- Handle -->
  <rect x="30" y="8" width="4" height="48" fill="#8B4513"/>
  <rect x="29" y="10" width="2" height="44" fill="#A0522D"/>
  <rect x="33" y="10" width="2" height="44" fill="#654321"/>
  
  <!-- Axe head socket -->
  <rect x="28" y="20" width="8" height="8" fill="#555555"/>
  <rect x="29" y="21" width="6" height="6" fill="#696969"/>
  
  <!-- Main axe blade -->
  <rect x="18" y="16" width="18" height="16" fill="#C0C0C0"/>
  <rect x="16" y="18" width="20" height="12" fill="#C0C0C0"/>
  <rect x="14" y="20" width="22" height="8" fill="#C0C0C0"/>
  
  <!-- Blade edge -->
  <rect x="12" y="22" width="4" height="4" fill="#E8E8E8"/>
  <rect x="14" y="20" width="2" height="8" fill="#E8E8E8"/>
  
  <!-- Blade shading -->
  <rect x="32" y="18" width="4" height="12" fill="#A0A0A0"/>
  <rect x="30" y="20" width="2" height="8" fill="#808080"/>
  
  <!-- Handle wrap -->
  <rect x="28" y="35" width="8" height="2" fill="#654321"/>
  <rect x="28" y="40" width="8" height="2" fill="#654321"/>
  <rect x="28" y="45" width="8" height="2" fill="#654321"/>
  
  <!-- Pommel -->
  <rect x="28" y="52" width="8" height="6" fill="#8B4513"/>
  <rect x="26" y="54" width="12" height="2" fill="#A0522D"/>
</svg>