<!-- Longbow - Medieval pixel art style -->
<svg width="64" height="64" viewBox="0 0 64 64" xmlns="http://www.w3.org/2000/svg">
  <!-- Bow limb top -->
  <rect x="32" y="4" width="2" height="6" fill="#8B4513"/>
  <rect x="30" y="8" width="2" height="4" fill="#8B4513"/>
  <rect x="28" y="10" width="2" height="4" fill="#8B4513"/>
  <rect x="26" y="12" width="2" height="4" fill="#8B4513"/>
  <rect x="24" y="14" width="2" height="4" fill="#8B4513"/>
  <rect x="22" y="16" width="2" height="6" fill="#8B4513"/>
  <rect x="20" y="20" width="2" height="6" fill="#8B4513"/>
  
  <!-- Center grip -->
  <rect x="20" y="26" width="2" height="12" fill="#654321"/>
  <rect x="19" y="28" width="4" height="8" fill="#8B4513"/>
  
  <!-- Bow limb bottom -->
  <rect x="20" y="38" width="2" height="6" fill="#8B4513"/>
  <rect x="22" y="42" width="2" height="6" fill="#8B4513"/>
  <rect x="24" y="46" width="2" height="4" fill="#8B4513"/>
  <rect x="26" y="48" width="2" height="4" fill="#8B4513"/>
  <rect x="28" y="50" width="2" height="4" fill="#8B4513"/>
  <rect x="30" y="52" width="2" height="4" fill="#8B4513"/>
  <rect x="32" y="54" width="2" height="6" fill="#8B4513"/>
  
  <!-- Bowstring -->
  <rect x="34" y="6" width="2" height="2" fill="#F5DEB3"/>
  <rect x="36" y="8" width="2" height="2" fill="#F5DEB3"/>
  <rect x="38" y="10" width="2" height="2" fill="#F5DEB3"/>
  <rect x="40" y="12" width="2" height="44" fill="#F5DEB3"/>
  <rect x="38" y="50" width="2" height="2" fill="#F5DEB3"/>
  <rect x="36" y="52" width="2" height="2" fill="#F5DEB3"/>
  <rect x="34" y="54" width="2" height="2" fill="#F5DEB3"/>
  
  <!-- String nocks -->
  <rect x="32" y="4" width="4" height="2" fill="#654321"/>
  <rect x="32" y="58" width="4" height="2" fill="#654321"/>
</svg>