<svg width="200" height="200" viewBox="0 0 200 200" xmlns="http://www.w3.org/2000/svg">
    <defs>
        <linearGradient id="mainGrad" x1="0%" y1="0%" x2="100%" y2="100%">
            <stop offset="0%" style="stop-color:#8B008B;stop-opacity:1" />
            <stop offset="100%" style="stop-color:#d700d7;stop-opacity:1" />
        </linearGradient>
        <radialGradient id="accentGrad" cx="50%" cy="50%" r="50%">
            <stop offset="0%" style="stop-color:#8b1b00;stop-opacity:0.8" />
            <stop offset="100%" style="stop-color:#8B008B;stop-opacity:0.4" />
        </radialGradient>
    </defs>

    <!-- Background circle -->
    <circle cx="100" cy="100" r="95" fill="url(#mainGrad)" stroke="#8b1b00" stroke-width="3"/>

    <!-- Monster shape -->
    <g transform="translate(100,100) scale(1.2)">
        <!-- Spider body -->
        <ellipse cx="0" cy="0" rx="20" ry="15" fill="#8B008B"/>
        <!-- Spider legs -->
        <g stroke="#d700d7" stroke-width="3" fill="none">
            <path d="M-20,-5 Q-35,-15 -40,-5"/>
            <path d="M-20,0 Q-35,0 -40,10"/>
            <path d="M-20,5 Q-35,15 -40,25"/>
            <path d="M20,-5 Q35,-15 40,-5"/>
            <path d="M20,0 Q35,0 40,10"/>
            <path d="M20,5 Q35,15 40,25"/>
        </g>
        <!-- Eyes -->
        <circle cx="-5" cy="-8" r="2" fill="#FF0000"/>
        <circle cx="5" cy="-8" r="2" fill="#FF0000"/>
        
    </g>

    <!-- CR indicator -->
    <circle cx="170" cy="30" r="12" fill="#CD7F32" stroke="#000" stroke-width="1"/>
    <text x="170" y="35" text-anchor="middle" font-family="Arial" font-size="10" font-weight="bold" fill="#000">
        3
    </text>

    <!-- Name (first word only to fit) -->
    <text x="100" y="185" text-anchor="middle" font-family="Arial" font-size="12" font-weight="bold" fill="#000">
        Phase
    </text>

</svg>